# xmcd
#
# Track frame offsets:
# 150
# 22832
# 40830
# 58550
# 75695
# 91607
# 111485
# 137702
# 160650
# 174745
#
# Disc length: 2577 seconds
#
#
# Revision: 0
# Processed by: cddbd v1.4PL0 Copyright (c) Steve Scherf et al.
# Submitted via: FreeRIP 2.00 
#
DISCID=730a0f0a
DTITLE=Johnnie Taylor - Stop Half-Loving These Women
DYEAR=1996
DGENRE=Blues
TTITLE0=I Want To Get Into You
TTITLE1=Never My Love
TTITLE2=Heaven Bless This House
TTITLE3=Stop Half-Loving These Women
TTITLE4=I Want You Back Again
TTITLE5=Bittersweet Love
TTITLE6=Stormy Weather
TTITLE7=Love Account
TTITLE8=Please Don't Stop The Music
TTITLE9=Sneakin'
EXTD=
EXTT0=
EXTT1=
EXTT2=
EXTT3=
EXTT4=
EXTT5=
EXTT6=
EXTT7=
EXTT8=
EXTT9=
PLAYORDER=
